<svg id="圖層_1" data-name="圖層 1" xmlns="http://www.w3.org/2000/svg" viewBox="0 0 89.87 159.66"><defs><style>.cls-1{fill:#e61d1e;}.cls-2{fill:none;}</style></defs><title>num</title><polygon class="cls-1" points="72.44 89.43 16.86 89.43 7.14 79.83 16.86 70.23 72.44 70.23 82.17 79.83 72.44 89.43"/><polygon class="cls-2" points="9.85 86.7 4.93 81.82 0 86.7 0 146.98 4.93 151.86 9.85 146.98 15.41 141.47 15.41 92.21 9.85 86.7"/><polygon class="cls-1" points="80.02 86.7 84.95 81.82 89.87 86.7 89.87 146.98 84.95 151.86 80.02 146.98 74.46 141.47 74.46 92.21 80.02 86.7"/><polygon class="cls-1" points="9.85 12.59 4.93 7.71 0 12.59 0 72.87 4.93 77.75 9.85 72.87 15.41 67.36 15.41 18.09 9.85 12.59"/><polygon class="cls-1" points="80.02 12.59 84.95 7.71 89.87 12.59 89.87 72.87 84.95 77.75 80.02 72.87 74.46 67.36 74.46 18.09 80.02 12.59"/><polygon class="cls-1" points="77.49 149.81 82.37 154.74 77.49 159.66 12.02 159.66 7.14 154.74 12.02 149.81 17.53 144.25 71.98 144.25 77.49 149.81"/><polygon class="cls-1" points="12.02 9.85 7.14 4.93 12.02 0 77.49 0 82.37 4.93 77.49 9.85 71.98 15.41 17.53 15.41 12.02 9.85"/></svg>