<svg id="圖層_1" data-name="圖層 1" xmlns="http://www.w3.org/2000/svg" viewBox="0 0 47.63 341.28"><defs><style>.cls-1{fill:#e61d1e;}</style></defs><title>stripe</title><polygon class="cls-1" points="0 42.63 47.63 14.11 47.63 0 0 28.52 0 42.63"/><polygon class="cls-1" points="0 67.52 47.63 38.99 47.63 24.89 0 53.41 0 67.52"/><polygon class="cls-1" points="0 78.3 47.63 49.78 47.63 63.88 0 92.41 0 78.3"/><polygon class="cls-1" points="0 103.19 47.63 74.66 47.63 88.77 0 117.29 0 103.19"/><polygon class="cls-1" points="0 128.07 47.63 99.55 47.63 113.66 0 142.18 0 128.07"/><polygon class="cls-1" points="0 142.18 47.63 113.66 47.63 99.55 0 128.07 0 142.18"/><polygon class="cls-1" points="0 167.07 47.63 138.55 47.63 124.44 0 152.96 0 167.07"/><polygon class="cls-1" points="0 177.85 47.63 149.33 47.63 163.43 0 191.96 0 177.85"/><polygon class="cls-1" points="0 202.74 47.63 174.22 47.63 188.32 0 216.84 0 202.74"/><polygon class="cls-1" points="0 227.63 47.63 199.1 47.63 213.21 0 241.73 0 227.63"/><polygon class="cls-1" points="0 241.73 47.63 213.21 47.63 199.1 0 227.63 0 241.73"/><polygon class="cls-1" points="0 266.62 47.63 238.1 47.63 223.99 0 252.51 0 266.62"/><polygon class="cls-1" points="0 277.4 47.63 248.88 47.63 262.99 0 291.51 0 277.4"/><polygon class="cls-1" points="0 302.29 47.63 273.77 47.63 287.87 0 316.4 0 302.29"/><polygon class="cls-1" points="0 327.18 47.63 298.65 47.63 312.76 0 341.28 0 327.18"/></svg>